<svg xmlns="http://www.w3.org/2000/svg" viewBox="0 0 104.16 100.69"><defs><style>.cls-1,.cls-2,.cls-5{opacity:0.7;}.cls-1,.cls-2,.cls-4{isolation:isolate;}.cls-2,.cls-5{fill:#00edff;}.cls-3{fill:#fff;}</style></defs><title>electric</title><g id="Layer_2" data-name="Layer 2"><g id="Layer_19" data-name="Layer 19"><g class="cls-1"><polygon class="cls-2" points="68.92 75.1 61.47 94.77 81.13 75.1 74.62 75.1 68.92 75.1"/><polygon class="cls-2" points="35.24 75.1 29.53 75.1 23.02 75.1 42.69 94.77 35.24 75.1"/></g><polygon class="cls-3" points="84.93 32.85 83.14 37.57 97.65 52.08 86.13 63.59 73.28 63.59 71.54 68.2 81.53 68.2 87.64 68.2 88.04 68.2 104.16 52.08 84.93 32.85"/><polygon class="cls-3" points="30.88 63.59 18.02 63.59 6.51 52.08 21.01 37.57 19.23 32.85 0 52.08 16.12 68.2 17.64 68.2 22.63 68.2 32.62 68.2 30.88 63.59"/><polygon class="cls-3" points="48.63 9.96 52.08 6.51 55.53 9.96 62.04 9.96 52.08 0 42.12 9.96 48.63 9.96"/><polygon class="cls-3" points="46.25 85.32 52.08 100.69 57.91 85.32 46.25 85.32"/><polygon class="cls-3" points="38.02 63.59 39.71 68.05 64.45 68.05 66.14 63.59 38.02 63.59"/><g class="cls-4"><polygon class="cls-5" points="55.19 38.55 40.55 36.97 62.27 16.86 20.31 16.86 35.59 57.19 39 57.19 55.19 38.55"/><polygon class="cls-2" points="63.03 16.86 52.18 32.05 66.97 34.08 39.65 57.19 68.56 57.19 83.85 16.86 63.03 16.86"/></g></g></g></svg>