<?xml version="1.0" encoding="utf-8"?>
<!-- Generator: Adobe Illustrator 21.0.2, SVG Export Plug-In . SVG Version: 6.00 Build 0)  -->
<svg version="1.1" id="Layer_1" xmlns="http://www.w3.org/2000/svg" xmlns:xlink="http://www.w3.org/1999/xlink" x="0px" y="0px"
	 viewBox="0 0 318.7 318.7" style="enable-background:new 0 0 318.7 318.7;" xml:space="preserve">
<title>FreeForAll</title>
<path d="M159.3,0C71.5,0,0,71.5,0,159.3s71.5,159.3,159.3,159.3c87.9,0,159.3-71.5,159.3-159.3S247.2,0,159.3,0z M159.3,304.7
	C79.2,304.7,14,239.5,14,159.3S79.2,14,159.3,14c80.1,0,145.3,65.2,145.3,145.3S239.5,304.7,159.3,304.7z"/>
<path d="M277,131.2c0.3-23.4-3.6-31.6-16.6-53.1C227.2,20,159.2,21.3,159.2,21.3h-0.7c0,0-68-1.3-101.2,56.8
	c-12.9,21.5-16.9,29.8-16.6,53.3c0.3,23.4,11.8,30,12.8,42.8c1.1,12.8-2.4,12.5-3.5,18.3s1.2,17.3,13.4,18.5l-10.9,10.7
	c0,0,17.7,20.6,23.6,42.3l14.4,9.6c0,0-9.1-20.3-0.3-22.8c8.8-2.4,25.2,11.5,9.7,15.4c-0.1,8.5-0.2,18.1-0.2,18.1
	s27.2,13.5,59.1,13.5s59.1-13.5,59.1-13.5s-0.2-9.6-0.2-18.1c-15.5-4,0.9-17.9,9.7-15.4c8.8,2.4-0.3,22.8-0.3,22.8l14.4-9.6
	c5.9-21.8,23.6-42.3,23.6-42.3L254.2,211c12.2-1.2,14.5-12.7,13.4-18.6c-1.1-5.9-4.5-5.6-3.5-18.4S276.7,154.7,277,131.2z
	 M89.7,122.8l7,3.1l0.6-2.1l3.9-1.4l2.3-2.7l1.5,0.1l2.1-2.2c-0.4,0-0.8,0.1-1.2,0.3l-0.1,0.1v-0.1c0.1-0.5,0.5-1,0.9-1.4l1.1-0.1
	l0.2,0.3l1.1-1.1v-1c1.6-1.5,3.3-2.9,5-4.2l1.7-6.7l-0.2-0.1c0-0.3-0.9-7.7-0.8-8.1c0.4-0.8,1-1.6,1.6-2.3c0.1-0.5,0.3-1.1,0.5-1.8
	c0-0.2-0.1-0.5-0.1-0.8l-12.4-43.7l27.2,36.4c0.3,0.3,0.6,0.4,0.8,0.5l1.7,0.7c0.9,0,1.7,0.1,2.6,0.2c0.3,0.2,5.6,5.4,5.9,5.6
	l6.3,2.8c1.5-0.4,5.1,0.4,6.4-1.6l0.8,0.8l1.5,0.2l-0.1-0.4l0.8-0.8c0.6-0.1,1.1-0.1,1.7,0.1h0.1l-0.1,0.1c-0.3,0.2-0.7,0.5-1,0.8
	l3-0.3l0.9-1.3l3.5-0.2L170,88l2,0.9l1.9-7.5l1.7-3.1l8,12.5l-1.3,7.6h-0.1l-18.6,2.9l-13,6.4l-7.1-2.4l-0.1,4.4l-1.7,2.1
	c0.3,0.2,0.5,0.4,0.6,0.8c0.3,0.1,0.5,0.3,0.6,0.6c0.5,0.4,0.5,0.7,0.5,0.9c0.6,0.3,6.5,3.4,7.3,4l3.5-1.7l-1.4-2.8h0.2
	c0.1,0,5.8,3.4,6,8.9l-0.1-0.1l-0.4,0.2h1.6l0.1,0.2c0,0,1.8,2.8,0.1,5.2l-6,0.1c-1.1,2.3-3.4,4.3-6.7,5.9c-4.9,2.4-9.2,2.6-12-0.1
	l-3.1,1.5l1.7,3.4l-0.2-0.2c-0.1,0-5.8-3.6-5.9-9.1l-0.1-0.2l1.5-0.7l-2.7,0.2v0.1c-1-1.5-1.1-3.4-0.1-4.9v0.4l6.8-0.6
	c0.3-2.1,0.7-4.6,0.8-5c-0.3-0.3-0.4-0.6-0.4-1c-0.2-0.3-0.3-0.6-0.2-0.9c-0.2-0.3-0.3-0.6-0.3-0.9h-2.7l-3.5-2.6l-2.4,7.1l-13,6.4
	L98,139.9l-6.8-3.5l-5-14L89.7,122.8z M69,162l-0.3,0.2l-0.2,0.1l-0.5,0.2l-0.9,0.5c-1.1,0.6-2.1,1.4-2.8,2.5
	c-0.2,0.3-0.3,0.5-0.5,0.8l-0.2,0.4l-0.2,0.5c-0.1,0.3-0.2,0.6-0.3,0.9l-0.2,1c-0.3,1.3-0.4,2.7-0.4,4.1c0,0.7,0,1.4,0.1,2.1
	c0,0.7,0.1,1.4,0.1,2.1l0.2,2.1c0.1,0.7,0.2,1.4,0.3,2.1c0.2,1.4,0.5,2.8,0.8,4.2c0.3,1.4,0.6,2.8,0.9,4.2l1,4.2
	c0.8,2.9,1,5.9,0.6,8.8c-0.2,1.5-0.7,2.9-1.5,4.2c-0.8,1.2-1.8,2.3-3,3.2c1.1-1,2-2.1,2.6-3.4c0.6-1.3,1-2.7,1.1-4.1
	c0.2-2.8-0.3-5.7-1.2-8.4c-0.5-1.4-0.9-2.8-1.2-4.2c-0.4-1.4-0.8-2.8-1.1-4.2s-0.7-2.8-1-4.3c-0.1-0.7-0.3-1.4-0.4-2.2l-0.3-2.2
	c-0.1-0.7-0.2-1.5-0.2-2.2s-0.1-1.5-0.1-2.2c-0.1-1.5,0-3.1,0.3-4.6l0.2-1.2c0.1-0.4,0.2-0.8,0.4-1.1l0.2-0.6l0.3-0.6
	c0.2-0.4,0.4-0.7,0.6-1.1c0.9-1.4,2.1-2.5,3.6-3.4l1-0.6l0.5-0.3l0.2-0.1l0.1-0.1c0.4-0.3,0.7-0.7,0.9-1.1c0.5-1.2,0.7-2.4,0.7-3.7
	c0-1.4-0.1-2.7-0.2-4.1l-1.5-4.2c-0.5-0.3-0.9-0.7-1.3-1.1c-0.8-0.7-1.6-1.4-2.4-2.2c-1.6-1.5-3.1-3.1-4.5-4.7
	c-1.5-1.6-2.9-3.3-4.1-5.1c-0.7-0.9-1.3-1.9-1.8-2.9c-0.3-0.5-0.5-1.1-0.7-1.6c-0.2-0.7-0.4-1.3-0.4-2v0l-0.1-1.7c0-0.6,0-1.2,0-1.8
	s0.1-1.2,0.1-1.8c0.1-0.6,0.1-1.2,0.2-1.8c0.2-1.2,0.4-2.4,0.6-3.5c0.2-1.2,0.5-2.3,0.9-3.5s0.7-2.3,1-3.4s0.8-2.2,1.2-3.3
	c0.4-1.1,0.9-2.2,1.3-3.3c0.5-1.1,0.9-2.2,1.4-3.2c1-2.1,2.1-4.2,3.2-6.3c1.1-2.1,2.3-4.1,3.5-6.1c1.2-2,2.5-4,3.8-5.9
	c1.3-1.9,2.7-3.8,4.1-5.7c-1.2,2-2.4,4-3.5,6c-1.2,2-2.3,4.1-3.3,6.1s-1.9,4.2-2.9,6.3c-1,2.1-1.9,4.2-2.8,6.4
	c-1.8,4.2-3.3,8.6-4.4,13.1c-0.3,1.1-0.5,2.2-0.8,3.3c-0.2,1.1-0.4,2.2-0.5,3.4c-0.1,0.6-0.1,1.1-0.2,1.7c0,0.6-0.1,1.1-0.1,1.7
	s0.1,1.1,0.1,1.7l0.2,1.7l-0.1,0.1c0,0.3,0.1,0.7,0.2,1c0.2,0.4,0.4,0.9,0.6,1.3c0.5,0.9,1,1.7,1.6,2.5c1.2,1.7,2.6,3.3,4,4.8
	c1.4,1.5,2.9,3,4.4,4.5c0.8,0.7,1.5,1.4,2.3,2.1c0.4,0.3,0.8,0.7,1.2,1c0.4,0.3,0.7,0.6,1.1,0.8l0.5,0.3l0.1,0.6
	c0.3,1.5,0.6,3,0.8,4.5c0.2,1.5,0.3,3,0.2,4.6c0,1.7-0.3,3.3-1,4.8C70.5,160.7,69.8,161.5,69,162z M92.4,213.2L92.4,213.2
	C70.6,205.9,71,189.6,71,179.6s3.5-28.7,34.5-28.7s42.8,18.4,42.8,18.4c2.6,8.2-3.6,14.4-4.4,18.8c-0.8,4.3,0.3,10.5-6.1,16.8
	S114.2,220.6,92.4,213.2z M171.1,241.3L171.1,241.3c-4.2,3.8-11.5,6.3-11.4,5.9c1.3-4.9-0.5-7-0.2-10.1c0.2-2,0.1-3.9-0.5-5.8
	c-0.3,0.9-5.1,8.2-1.4,11.9c0.8,0.8-2.9,4.7-7.2,1.6c-2.5-1.8-6.4-8.5-6.5-12.6c-0.5-14.9,13.4-32.6,12.5-29.1
	c-0.8,3.3-0.2,6.8,1.6,9.6c0.2-1.4,0.6-2.7,1-4c0,0,1.4-4-0.9-9.8c-2-5.3,16.5,18.4,16,33.3C173.9,236.1,173.8,238.8,171.1,241.3z
	 M225.3,213.2L225.3,213.2c-21.8,7.4-39-2-45.4-8.3c-6.4-6.3-5.3-12.5-6.1-16.8s-7-10.5-4.4-18.8c0,0,11.8-18.4,42.8-18.4
	s34.5,18.7,34.5,28.7S247.1,205.9,225.3,213.2z M263.7,133.6L263.7,133.6c-1.3,1.8-2.7,3.5-4.2,5.1c-1.5,1.6-3,3.2-4.5,4.7
	c-0.8,0.8-1.6,1.5-2.4,2.2c-0.4,0.4-0.8,0.7-1.3,1.1c-0.3,0.2-0.6,0.4-0.9,0.7c-0.3,1.2-0.5,2.4-0.6,3.6c-0.2,1.4-0.3,2.7-0.2,4.1
	c0,1.3,0.2,2.5,0.7,3.7c0.2,0.4,0.5,0.8,0.9,1.1l0.1,0.1l0.2,0.1l0.5,0.3l1,0.6c1.4,0.8,2.7,2,3.6,3.4c0.2,0.3,0.4,0.7,0.6,1.1
	l0.3,0.6l0.2,0.6c0.1,0.4,0.3,0.8,0.4,1.2l0.2,1.2c0.2,1.5,0.3,3,0.3,4.6c0,0.8-0.1,1.5-0.1,2.2c-0.1,0.8-0.1,1.5-0.2,2.2l-0.3,2.2
	c-0.1,0.7-0.3,1.4-0.4,2.2c-0.3,1.4-0.6,2.9-1,4.3s-0.7,2.8-1.1,4.2c-0.4,1.4-0.8,2.8-1.2,4.2c-1,2.7-1.4,5.5-1.2,8.4
	c0.1,1.4,0.5,2.8,1.1,4.1c0.7,1.3,1.6,2.4,2.6,3.4c-1.2-0.9-2.2-2-3-3.2c-0.8-1.3-1.3-2.7-1.5-4.2c-0.4-3-0.2-5.9,0.6-8.8l1-4.2
	c0.3-1.4,0.7-2.8,0.9-4.2c0.2-1.4,0.5-2.8,0.8-4.2c0.1-0.7,0.2-1.4,0.3-2.1l0.2-2.1c0.1-0.7,0.1-1.4,0.2-2.1c0-0.7,0.1-1.4,0-2.1
	c0-1.4-0.1-2.7-0.4-4.1l-0.2-1c-0.1-0.3-0.2-0.6-0.3-0.9l-0.2-0.5l-0.2-0.4c-0.1-0.3-0.3-0.5-0.5-0.8c-0.7-1-1.7-1.9-2.8-2.5
	l-0.9-0.5l-0.5-0.2l-0.2-0.1l-0.3-0.2c-0.8-0.5-1.5-1.3-1.9-2.2c-0.7-1.5-1-3.1-1-4.8c0-1.5,0-3.1,0.2-4.6c0.2-1.5,0.4-3,0.8-4.5
	l0.1-0.6l0.5-0.3c0.4-0.3,0.8-0.5,1.1-0.8c0.4-0.3,0.8-0.6,1.2-1c0.8-0.7,1.5-1.4,2.3-2.1c1.5-1.4,3-2.9,4.4-4.5
	c1.4-1.5,2.8-3.1,4-4.8c0.6-0.8,1.1-1.7,1.6-2.5c0.2-0.4,0.4-0.8,0.6-1.3c0.1-0.3,0.3-0.7,0.3-1l0.1-0.1v-1.7c0-0.6,0-1.1,0-1.7
	s-0.1-1.1-0.1-1.7c0-0.6-0.1-1.1-0.2-1.7c-0.1-1.1-0.3-2.2-0.5-3.4c-0.2-1.1-0.5-2.2-0.8-3.3c-1.1-4.5-2.6-8.8-4.4-13.1
	c-0.9-2.1-1.8-4.3-2.8-6.4c-1-2.1-2-4.2-3.1-6.2s-2.2-4.1-3.3-6.1c-1.2-2-2.3-4-3.5-6c1.4,1.9,2.8,3.8,4.1,5.7
	c1.3,2,2.5,3.9,3.8,5.9c1.2,2,2.4,4,3.5,6.1s2.2,4.2,3.2,6.3c0.5,1.1,1,2.1,1.4,3.2c0.5,1.1,0.9,2.2,1.3,3.3
	c0.4,1.1,0.8,2.2,1.2,3.3s0.7,2.2,1,3.4s0.6,2.3,0.9,3.5c0.3,1.2,0.5,2.3,0.6,3.5c0.1,0.6,0.2,1.2,0.2,1.8l0.5,5.3l-0.2,0.1
	l-0.1-0.1c0,0.7-0.2,1.4-0.4,2c-0.2,0.6-0.5,1.1-0.8,1.6C265,131.7,264.4,132.6,263.7,133.6z"/>
</svg>
