<svg xmlns="http://www.w3.org/2000/svg" viewBox="0 0 318.67 318.67"><defs><style>.cls-1{fill:#fff;}</style></defs><title>FreeForAll</title><g id="Layer_2" data-name="Layer 2"><g id="concept_1_copy" data-name="concept 1 copy"><path class="cls-1" d="M73.33,75.67c-2.43,4-4.73,8-6.86,12.16s-4.11,8.32-5.86,12.6a92.47,92.47,0,0,0-4.39,13.07,43.63,43.63,0,0,0-1.48,13.41h0v.1a6.22,6.22,0,0,0,.86,2.31,24,24,0,0,0,1.63,2.53,57.61,57.61,0,0,0,4,4.81c1.41,1.55,2.89,3.05,4.41,4.49.76.72,1.52,1.43,2.31,2.11a20.74,20.74,0,0,0,2.32,1.8l.56.35.13.57a36.36,36.36,0,0,1,1,9,12,12,0,0,1-1,4.8A5.36,5.36,0,0,1,69,162l-.33.2-.25.13-.48.25-.91.49a7.67,7.67,0,0,0-2.78,2.45,4.82,4.82,0,0,0-.46.8l-.22.41-.16.45c-.1.31-.22.6-.31.91l-.21,1a29.89,29.89,0,0,0-.16,8.31,130,130,0,0,0,3.19,16.94,22.48,22.48,0,0,1,.64,8.81,12,12,0,0,1-1.5,4.17,12.75,12.75,0,0,1-3,3.19,12.54,12.54,0,0,0,2.63-3.39A11.84,11.84,0,0,0,65.84,203a21.48,21.48,0,0,0-1.22-8.36,109.05,109.05,0,0,1-4.09-17,31.57,31.57,0,0,1-.12-9l.22-1.16c.1-.38.24-.77.36-1.15l.19-.57.27-.56a7.16,7.16,0,0,1,.6-1.09,10.38,10.38,0,0,1,3.59-3.35l1-.57.48-.26.23-.13.13-.09a2.56,2.56,0,0,0,.86-1.1,9.87,9.87,0,0,0,.68-3.67,33.66,33.66,0,0,0-1-8.21l.68.91A22.68,22.68,0,0,1,66,145.53c-.83-.72-1.64-1.45-2.43-2.2-1.57-1.51-3.07-3.07-4.53-4.68a60.43,60.43,0,0,1-4.14-5.09,26.81,26.81,0,0,1-1.81-2.86A8.15,8.15,0,0,1,51.93,127v.11a45.35,45.35,0,0,1,1.89-14.22,88.49,88.49,0,0,1,5-13.22A126.4,126.4,0,0,1,65.5,87.28,132.84,132.84,0,0,1,73.33,75.67Z"/><path class="cls-1" d="M245.27,75.67a132.84,132.84,0,0,1,7.83,11.61,126.39,126.39,0,0,1,6.67,12.37,88.49,88.49,0,0,1,5,13.22,45.35,45.35,0,0,1,1.89,14.22V127a8.15,8.15,0,0,1-1.14,3.71,26.81,26.81,0,0,1-1.81,2.86,60.44,60.44,0,0,1-4.14,5.09c-1.45,1.61-3,3.18-4.53,4.68-.78.75-1.59,1.48-2.43,2.2a22.68,22.68,0,0,1-2.76,2.09l.68-.91a33.66,33.66,0,0,0-1,8.21,9.87,9.87,0,0,0,.68,3.67,2.56,2.56,0,0,0,.86,1.1l.13.09.23.13.48.26,1,.57a10.38,10.38,0,0,1,3.59,3.35,7.16,7.16,0,0,1,.6,1.09l.27.56.19.57c.12.38.26.77.36,1.15l.22,1.16a31.57,31.57,0,0,1-.12,9,109,109,0,0,1-4.09,17,21.47,21.47,0,0,0-1.22,8.36,11.85,11.85,0,0,0,1.13,4.06,12.54,12.54,0,0,0,2.63,3.39,12.75,12.75,0,0,1-3-3.19,12,12,0,0,1-1.5-4.17,22.48,22.48,0,0,1,.64-8.81,130,130,0,0,0,3.19-16.94,29.89,29.89,0,0,0-.16-8.31l-.21-1c-.09-.31-.21-.61-.31-.91l-.16-.45-.22-.41a4.82,4.82,0,0,0-.46-.8,7.67,7.67,0,0,0-2.78-2.45l-.91-.49-.48-.25-.25-.13-.33-.2a5.36,5.36,0,0,1-1.89-2.2,12,12,0,0,1-1-4.8,36.36,36.36,0,0,1,1-9l.13-.57.56-.35a20.74,20.74,0,0,0,2.32-1.8c.78-.68,1.54-1.39,2.31-2.11,1.52-1.44,3-2.94,4.41-4.49a57.61,57.61,0,0,0,4-4.81,24,24,0,0,0,1.63-2.53,6.22,6.22,0,0,0,.86-2.31v-.1h0a43.63,43.63,0,0,0-1.48-13.41A92.47,92.47,0,0,0,258,100.43c-1.75-4.28-3.76-8.46-5.86-12.6S247.7,79.65,245.27,75.67Z"/><path class="cls-1" d="M159,208.67s1.36-3.95-.87-9.78c-2-5.3,16.45,18.4,15.95,33.3-.13,4-.31,6.63-3,9.08-4.19,3.89-11.52,6.37-11.42,6,1.26-4.93-.54-7-.2-10.07a14.89,14.89,0,0,0-.5-5.83c-.33.9-5.1,8.19-1.44,11.88.77.78-2.89,4.65-7.16,1.61-2.48-1.77-6.39-8.51-6.53-12.64-.51-14.9,13.39-32.56,12.5-29.1a12.11,12.11,0,0,0,1.6,9.59A27.23,27.23,0,0,1,159,208.67Z"/><path class="cls-1" d="M148.34,169.32s-11.85-18.39-42.84-18.39S71,169.58,71,179.58s-.38,26.27,21.43,33.63,39-2,45.4-8.31,5.29-12.49,6.09-16.82S150.93,177.55,148.34,169.32Z"/><path d="M159,298.06h0Z"/><path d="M159.33,318.67C71.48,318.67,0,247.19,0,159.33S71.48,0,159.33,0,318.67,71.48,318.67,159.33,247.19,318.67,159.33,318.67Zm0-304.67C79.2,14,14,79.2,14,159.33S79.2,304.67,159.33,304.67s145.33-65.2,145.33-145.33S239.47,14,159.33,14Z"/><path d="M277,131.22c.29-23.44-3.64-31.63-16.57-53.13C227.23,20,159.19,21.33,159.19,21.33h-.68S90.46,20,57.27,78.09c-12.93,21.5-16.86,29.82-16.57,53.26s11.75,30,12.82,42.83-2.4,12.45-3.46,18.34,1.25,17.35,13.42,18.54L52.62,221.73s17.73,20.56,23.58,42.32l14.41,9.61s-9.14-20.35-.32-22.76,25.21,11.49,9.7,15.45c-.08,8.53-.24,18.14-.24,18.14s27.16,13.51,59.09,13.55,59.1-13.55,59.1-13.55-.16-9.61-.24-18.14c-15.51-4,.88-17.86,9.7-15.45s-.32,22.76-.32,22.76l14.41-9.61c5.85-21.77,23.58-42.33,23.58-42.33L254.21,211c12.17-1.19,14.49-12.67,13.42-18.56s-4.53-5.57-3.46-18.37S276.69,154.66,277,131.22ZM89.66,122.84l7,3.09.57-2.14,3.92-1.39,2.3-2.7h0l1.53.08,2.09-2.17a5.22,5.22,0,0,0-1.2.27l-.14.05,0-.14a2.6,2.6,0,0,1,.92-1.38h0l1.13-.13.24.29,1.07-1.14,0-1,0,0a57.59,57.59,0,0,1,5-4.22l1.68-6.72-.16-.1,0,0v0c0-.32-.88-7.74-.85-8.07A12.7,12.7,0,0,1,116.36,93c.13-.49.29-1.12.48-1.81,0-.2-.08-.49-.12-.85L104.28,46.66l-.15-.3h0l.16-.08-.16.08.15.3,27.19,36.43c.27.27.65.39.79.55l1.72.73a12.71,12.71,0,0,1,2.61.21c.28.18,5.64,5.36,5.87,5.58h0c0-.06,0,0,0,0v0h0v0L148.8,93c1.52-.4,5.14.36,6.41-1.64h0l.82.82,1.55.21-.08-.43.79-.85,0,0a2.57,2.57,0,0,1,1.66.11l.14,0-.13.08a5,5,0,0,0-.95.78l3-.33.89-1.29,3.54-.18L170,88l2,.85,1.86-7.49,1.7-3.07,8,12.52-1.31,7.55h-.06l-18.62,2.87-13,6.41v0l-7.08-2.4-.07,4.36-1.68,2.13a1.2,1.2,0,0,1,.55.75.82.82,0,0,1,.58.63c.49.43.49.72.48.86.62.33,6.48,3.37,7.33,4l3.45-1.7-1.4-2.84.23,0c.06,0,5.83,3.42,6,8.87l-.06-.09-.44.22,1.56,0,.09.16s1.78,2.77.07,5.25h0l-6,.09c-1.09,2.3-3.41,4.3-6.66,5.9-4.91,2.42-9.16,2.63-12-.11l-3.08,1.51,1.65,3.36-.16-.22c-.06,0-5.77-3.61-5.92-9.06l-.06-.17,1.47-.71-2.72.22,0,.13a4.39,4.39,0,0,1-.08-4.93l0,.38h0l6.79-.55c.33-2.08.72-4.62.79-5a1.32,1.32,0,0,1-.42-1,1,1,0,0,1-.16-.92,1.29,1.29,0,0,1-.27-.93H130.6l-3.51-2.63-2.43,7.1-13,6.41L98,139.85l-6.77-3.54v0l-5-14ZM69,162l-.33.2-.24.13-.48.25-.91.49a7.67,7.67,0,0,0-2.77,2.45,4.82,4.82,0,0,0-.46.8l-.22.41-.16.45c-.1.31-.22.6-.31.91l-.21,1a21.36,21.36,0,0,0-.37,4.08c0,.69,0,1.4.05,2.1s.06,1.41.15,2.12l.23,2.12c.09.71.22,1.41.32,2.12.2,1.42.46,2.83.75,4.24s.58,2.82.9,4.23l1,4.23a22.48,22.48,0,0,1,.64,8.81,12,12,0,0,1-1.5,4.17,12.75,12.75,0,0,1-3,3.19,12.54,12.54,0,0,0,2.63-3.39A11.85,11.85,0,0,0,65.84,203a21.48,21.48,0,0,0-1.22-8.36c-.45-1.37-.86-2.78-1.24-4.18s-.8-2.8-1.13-4.23-.71-2.84-1-4.28c-.14-.72-.3-1.44-.41-2.16l-.32-2.19c-.13-.73-.18-1.47-.24-2.21s-.15-1.48-.14-2.24a22.72,22.72,0,0,1,.26-4.57l.22-1.16c.1-.38.24-.77.36-1.15l.19-.57.27-.56a7.16,7.16,0,0,1,.6-1.09,10.38,10.38,0,0,1,3.59-3.36l1-.57.48-.26.23-.13.13-.09a2.56,2.56,0,0,0,.86-1.1,9.87,9.87,0,0,0,.68-3.67,26.68,26.68,0,0,0-.24-4.11c-.15-1.19-.37-2.4-.63-3.56-.31-.22-.61-.43-.9-.66-.45-.35-.87-.7-1.29-1.06-.83-.72-1.64-1.45-2.43-2.2-1.57-1.51-3.07-3.07-4.53-4.68a60.45,60.45,0,0,1-4.14-5.09,26.81,26.81,0,0,1-1.81-2.86,12.17,12.17,0,0,1-.74-1.64,6.29,6.29,0,0,1-.39-2.05l0,.09,0-.11-.07-1.72c0-.61,0-1.21,0-1.82s.08-1.2.14-1.8.12-1.2.21-1.79c.16-1.19.4-2.36.62-3.53s.53-2.32.87-3.46.69-2.27,1.05-3.39.78-2.23,1.2-3.33.87-2.19,1.32-3.28.94-2.16,1.44-3.22q1.5-3.19,3.16-6.29c1.1-2.07,2.3-4.08,3.5-6.08s2.47-4,3.77-5.91,2.65-3.84,4.07-5.7c-1.24,2-2.38,4-3.54,6s-2.26,4.07-3.32,6.13S64.41,92,63.41,94.07s-1.92,4.22-2.8,6.35a92.47,92.47,0,0,0-4.39,13.07c-.28,1.11-.51,2.23-.75,3.34s-.4,2.24-.52,3.36c-.08.56-.14,1.12-.17,1.68s-.1,1.12-.1,1.68.09,1.12.11,1.68l.2,1.67v0l-.13.09a3.37,3.37,0,0,0,.19,1,11.05,11.05,0,0,0,.57,1.26,23.84,23.84,0,0,0,1.62,2.53,57.52,57.52,0,0,0,4,4.81c1.41,1.55,2.88,3.05,4.4,4.49.76.72,1.52,1.43,2.3,2.11.39.34.78.67,1.18,1a12.32,12.32,0,0,0,1.14.82l.54.33.14.59a41.71,41.71,0,0,1,.78,4.46,29.52,29.52,0,0,1,.22,4.57,12,12,0,0,1-1,4.8A5.36,5.36,0,0,1,69,162Zm23.42,51.21C70.62,205.85,71,189.58,71,179.58s3.51-28.66,34.5-28.66,42.84,18.39,42.84,18.39c2.59,8.23-3.63,14.44-4.42,18.77s.33,10.5-6.09,16.82S114.25,220.58,92.43,213.22Zm78.69,28c-4.19,3.89-11.52,6.37-11.42,6,1.26-4.93-.54-7-.2-10.07a14.88,14.88,0,0,0-.5-5.83c-.33.9-5.1,8.19-1.44,11.88.77.78-2.89,4.65-7.16,1.61-2.48-1.77-6.39-8.51-6.53-12.64-.51-14.9,13.39-32.56,12.5-29.1a12.11,12.11,0,0,0,1.6,9.59,27.23,27.23,0,0,1,1-4s1.36-3.95-.87-9.78c-2-5.3,16.45,18.4,15.95,33.3C173.94,236.14,173.76,238.81,171.12,241.27Zm54.14-28c-21.82,7.37-39-2-45.4-8.31s-5.29-12.49-6.09-16.82-7-10.54-4.42-18.77c0,0,11.85-18.39,42.84-18.39s34.5,18.66,34.5,28.66S247.08,205.85,225.26,213.22Zm38.47-79.66a60.45,60.45,0,0,1-4.14,5.09c-1.45,1.61-3,3.18-4.53,4.68-.78.75-1.59,1.48-2.43,2.2-.42.36-.84.71-1.29,1.06-.29.22-.58.44-.9.66-.26,1.16-.48,2.37-.63,3.56a26.68,26.68,0,0,0-.24,4.11,9.87,9.87,0,0,0,.68,3.67,2.56,2.56,0,0,0,.86,1.1l.13.09.23.13.48.26,1,.57a10.38,10.38,0,0,1,3.59,3.36,7.16,7.16,0,0,1,.6,1.09l.27.56.19.57c.12.38.26.77.36,1.15l.22,1.16a22.72,22.72,0,0,1,.26,4.57c0,.76-.08,1.49-.14,2.24s-.12,1.49-.24,2.21l-.32,2.19c-.12.73-.28,1.44-.41,2.16-.27,1.45-.62,2.86-1,4.28s-.73,2.83-1.13,4.23-.8,2.81-1.24,4.18a21.47,21.47,0,0,0-1.22,8.36,11.85,11.85,0,0,0,1.13,4.06,12.54,12.54,0,0,0,2.63,3.39,12.75,12.75,0,0,1-3-3.19,12,12,0,0,1-1.5-4.17,22.48,22.48,0,0,1,.64-8.81l1-4.23c.33-1.41.65-2.81.9-4.23s.55-2.82.75-4.24c.11-.71.24-1.41.32-2.12l.23-2.12c.1-.71.12-1.41.15-2.12s.09-1.41.05-2.1a21.36,21.36,0,0,0-.37-4.08l-.21-1c-.09-.31-.21-.61-.31-.91l-.16-.45-.22-.41a4.82,4.82,0,0,0-.46-.8,7.67,7.67,0,0,0-2.77-2.45l-.91-.49-.48-.25-.24-.13-.33-.2a5.36,5.36,0,0,1-1.89-2.2,12,12,0,0,1-1-4.8,29.52,29.52,0,0,1,.22-4.57,41.71,41.71,0,0,1,.78-4.46l.14-.59.55-.33a12.33,12.33,0,0,0,1.14-.82c.39-.31.79-.64,1.18-1,.78-.68,1.54-1.39,2.31-2.11,1.52-1.44,3-2.94,4.41-4.49a57.62,57.62,0,0,0,4-4.81,24,24,0,0,0,1.63-2.53,11.47,11.47,0,0,0,.6-1.26,4.38,4.38,0,0,0,.32-1l.07-.09v-1.68c0-.56,0-1.12-.05-1.68s-.08-1.12-.11-1.68-.1-1.12-.18-1.68c-.12-1.12-.33-2.24-.52-3.36s-.47-2.23-.75-3.34A92.48,92.48,0,0,0,258,100.43q-1.32-3.21-2.8-6.35c-1-2.09-2-4.19-3.06-6.25s-2.17-4.11-3.32-6.13-2.3-4-3.54-6c1.41,1.86,2.78,3.75,4.07,5.7s2.55,3.91,3.77,5.91,2.4,4,3.5,6.08,2.16,4.16,3.16,6.29q.75,1.59,1.44,3.22c.45,1.09.91,2.17,1.32,3.28s.82,2.21,1.2,3.33.74,2.25,1.05,3.39.6,2.3.87,3.46.47,2.34.63,3.53c.1.59.17,1.19.22,1.79s.13,1.2.15,1.8.23,1.21.22,1.82L267,127l-.16.11-.08-.09a6.26,6.26,0,0,1-.43,2.05,12.22,12.22,0,0,1-.76,1.64A26.94,26.94,0,0,1,263.73,133.55Z"/></g></g></svg>