<svg xmlns="http://www.w3.org/2000/svg" viewBox="0 0 223.25 221.99"><defs><style>.cls-1{fill:#00aa9e;}.cls-2,.cls-3{fill:none;stroke:#00aa9e;stroke-miterlimit:10;}.cls-3{stroke-width:3px;}.cls-4{fill:#e74c3c;}</style></defs><title>fallout</title><g id="Layer_2" data-name="Layer 2"><g id="Layer_3" data-name="Layer 3"><rect class="cls-1" x="24.31" y="108.19" width="64.27" height="4.35"/><path class="cls-2" d="M111.62,99.66s-9.89.25-12.57,4.7-7.77,22.37-7.77,22.37-5.47,20.66-5.78,24.22-.83,6.67.7,10.71,9.53,19,9.53,19a9.38,9.38,0,0,0,4.39,3.37c2.61.76,11.5.57,11.5.57"/><path class="cls-1" d="M104.12,90.25a3,3,0,0,0,.46-1,13.12,13.12,0,0,0,.42-1.56c.24-1.1.41-2.24.56-3.4.29-2.32.47-4.67.61-7,.28-4.72.4-9.47.44-14.21l0-3.56c0-.58,0-1.21,0-1.76l-.09-.78-.24-.79a17.69,17.69,0,0,0-3.88-5.68,42.89,42.89,0,0,0-5.31-4.69,38.28,38.28,0,0,0-6-3.78,38.47,38.47,0,0,1,6.24,3.47A43.45,43.45,0,0,1,102.94,50a25.39,25.39,0,0,1,2.46,2.66,13.07,13.07,0,0,1,1.94,3.15l.33.91.16,1c.07.63.08,1.2.12,1.8l.17,3.57c.2,4.76.34,9.53.31,14.32,0,2.39-.08,4.79-.25,7.21-.09,1.21-.21,2.43-.41,3.67a15.89,15.89,0,0,1-.41,1.9,5.23,5.23,0,0,1-1.11,2.21Z"/><path class="cls-3" d="M83.58,132.56c3.89-2.31,5.7-12.84,5.5-16-.16-2.52-1.17-5.33-1-7.67s3.7-7.59,5.49-9.66c1.56-1.8,4.18-4.76,6.73-5.77,1.34-.53,3.63-.9,4.89-2.15"/><path class="cls-3" d="M111.62,186.56s-9.62-.08-12.88-.67-6-3.83-6-3.83-7,.54-8.62.53-2.79-2.07-3.42-2.07-12.83.58-12.83.58-3.87-.37-8-10-4-11.46-3.87-12.25,7.38-10.29,7.38-10.29a17.32,17.32,0,0,1,.54-5.17c1.17-3.33,5.33-6.5,10.83-7.67a31.27,31.27,0,0,0,8.83-3.17"/><path class="cls-3" d="M80.75,180.52a65.34,65.34,0,0,0-7.83-20.71c-5.92-9.5-9.54-11.25-9.54-11.25"/><path class="cls-1" d="M91.54,182.89c-2.08-3.41-4-6.85-5.76-10.4a69.17,69.17,0,0,1-4.53-11A33.59,33.59,0,0,1,80,149.66a39.18,39.18,0,0,1,2.65-11.47,38.81,38.81,0,0,0-1.91,11.5,32.45,32.45,0,0,0,2,11.34,67.44,67.44,0,0,0,5.09,10.41c1.94,3.35,4.07,6.65,6.27,9.8Z"/><path class="cls-4" d="M73.87,70.43s.75-2.5,3.63-.87S93.62,79.81,96.12,83.93s-8.62,8.5-8.62,8.5-6.25,3-7.5,2.63-6.25-6.5-7.12-12.37C72.28,78.71,72.62,72.43,73.87,70.43Z"/><path class="cls-2" d="M111.62,99.66s9.89.25,12.57,4.7S132,126.73,132,126.73s5.47,20.66,5.78,24.22.83,6.67-.7,10.71-9.53,19-9.53,19a9.38,9.38,0,0,1-4.39,3.37c-2.61.76-11.5.57-11.5.57"/><path class="cls-3" d="M142.5,180.52a65.34,65.34,0,0,1,7.83-20.71c5.92-9.5,9.54-11.25,9.54-11.25"/><path class="cls-1" d="M129.21,181.22c2.21-3.15,4.33-6.44,6.27-9.8A67.44,67.44,0,0,0,140.57,161a32.45,32.45,0,0,0,2-11.34,38.81,38.81,0,0,0-1.91-11.5,39.18,39.18,0,0,1,2.65,11.47A33.59,33.59,0,0,1,142,161.48a69.17,69.17,0,0,1-4.53,11c-1.77,3.55-3.68,7-5.76,10.4Z"/><path class="cls-4" d="M149.37,70.43s-.75-2.5-3.62-.87-16.12,10.25-18.62,14.38,8.62,8.5,8.62,8.5,6.25,3,7.5,2.63,6.25-6.5,7.13-12.37C151,78.71,150.62,72.43,149.37,70.43Z"/><path class="cls-1" d="M101.64,104.39c-2.81,2.5-3.31,5.25-4,7.67S90.58,135,89.33,140a82.82,82.82,0,0,0-2.42,14.5,20.17,20.17,0,0,0,2.5,11.08c2.42,4.58,6.25,12.17,7.5,14.08a8.15,8.15,0,0,0,5.18,2.92V160.67c-.25-.24-.5-.48-.76-.74-4.75-4.83-8.67-13.79-9.29-16a14.36,14.36,0,0,1-.29-4.87c-.39.76,5.8-20.58,9.5-27.87.43-.85,1.25-3.42,3.13-4.87,1-.77,7.25-1.25,7.25-1.25v-3.33S104.45,101.89,101.64,104.39Z"/><path class="cls-1" d="M104.28,162.51v20.35c.29,0,.59,0,.89,0h6.46V165.14A11.74,11.74,0,0,1,104.28,162.51Z"/><path class="cls-1" d="M121.6,104.39c2.81,2.5,3.31,5.25,4,7.67S132.66,135,133.91,140a82.82,82.82,0,0,1,2.42,14.5,20.17,20.17,0,0,1-2.5,11.08c-2.42,4.58-6.25,12.17-7.5,14.08a8.15,8.15,0,0,1-5.18,2.92V160.67c.25-.24.5-.48.76-.74,4.75-4.83,8.67-13.79,9.29-16a14.36,14.36,0,0,0,.29-4.87c.39.76-5.8-20.58-9.5-27.87-.43-.85-1.25-3.42-3.12-4.87-1-.77-7.25-1.25-7.25-1.25v-3.33S118.79,101.89,121.6,104.39Z"/><path class="cls-1" d="M119,162.51v20.35c-.29,0-.59,0-.89,0h-6.46V165.14A11.74,11.74,0,0,0,119,162.51Z"/><path class="cls-1" d="M117,92.37a5.23,5.23,0,0,1-1.11-2.21,15.88,15.88,0,0,1-.41-1.9c-.2-1.24-.32-2.45-.41-3.67-.17-2.42-.23-4.82-.25-7.21,0-4.79.1-9.55.31-14.32l.17-3.57c0-.6,0-1.17.12-1.8l.16-1,.33-.91a13.07,13.07,0,0,1,1.94-3.15A25.39,25.39,0,0,1,120.31,50a43.44,43.44,0,0,1,5.62-4.46,38.46,38.46,0,0,1,6.24-3.47,38.28,38.28,0,0,0-6,3.78,42.89,42.89,0,0,0-5.31,4.69A17.69,17.69,0,0,0,117,56.2l-.24.79-.09.78c0,.55,0,1.18,0,1.76l0,3.56c0,4.75.16,9.49.44,14.21.14,2.36.33,4.71.61,7,.15,1.15.32,2.3.56,3.4a13.12,13.12,0,0,0,.42,1.56,3,3,0,0,0,.46,1Z"/><path class="cls-3" d="M139.66,132.56c-3.89-2.31-5.7-12.84-5.5-16,.16-2.52,1.17-5.33,1-7.67s-3.7-7.59-5.49-9.66c-1.56-1.8-4.18-4.76-6.73-5.77-1.34-.53-3.63-.9-4.89-2.15"/><path class="cls-3" d="M111.62,186.56s9.63-.08,12.88-.67,6-3.83,6-3.83,7,.54,8.63.53,2.79-2.07,3.42-2.07,12.83.58,12.83.58,3.88-.37,8-10,4-11.46,3.88-12.25-7.37-10.29-7.37-10.29a17.32,17.32,0,0,0-.54-5.17c-1.17-3.33-5.33-6.5-10.83-7.67a31.27,31.27,0,0,1-8.83-3.17"/><polygon class="cls-1" points="113.8 221.96 146.56 188.76 117.7 193.78 113.8 197.71 113.8 221.96"/><polygon class="cls-1" points="109.45 197.64 105.52 193.71 76.22 188.76 109.45 221.99 109.45 197.64"/><polygon class="cls-1" points="24.35 112.55 0 112.55 45.49 158.04 55.94 144.13 24.35 112.55"/><polygon class="cls-1" points="109.45 0 0.26 108.19 24.61 108.19 109.45 24.35 109.45 0"/><rect class="cls-1" x="134.66" y="108.19" width="64.27" height="4.35"/><polygon class="cls-1" points="198.89 112.55 223.25 112.55 177.75 158.04 167.31 144.13 198.89 112.55"/><polygon class="cls-1" points="113.8 0 222.99 108.19 198.63 108.19 113.8 24.35 113.8 0"/></g></g></svg>