<svg xmlns="http://www.w3.org/2000/svg" viewBox="0 0 492.36 598.18"><title>FindingScott_icon</title><g id="Layer_2" data-name="Layer 2"><g id="Layer_21" data-name="Layer 21"><path d="M152.89,159l.1.17-.46.24c-15.33,17-29.33,38.24-29.64,59.08l66.26,67.05v36.88a117.71,117.71,0,0,1,114.07,0V285.54l66.26-67.05c-.31-20.85-14.29-42-29.61-59.06l-.49-.25.1-.18a265.17,265.17,0,0,0-30-28c-34.87-18.3-63.34-16.06-63.34-16.06s-28.46-2.24-63.32,16A265.6,265.6,0,0,0,152.89,159Z"/><path d="M209.53,322.14l-12,54.94,26.87,118.1h17.77V315.77A111.46,111.46,0,0,0,209.53,322.14Z"/><path d="M213.43,483,188.89,375.16c-60.66-47.19-72.23-65.64-72.23-65.64-2-33.64,4.25-67.07,6.81-79.05l-8.56-8.66,0-1.6c-.33-17.71,7.84-37,24.3-57.53L91.74,60.49l-52.6-41L95.31,56.76l.44.29.35.63,52.66,93.94q1.18-1.27,2.39-2.55c5.64-5.91,11.26-11.19,16.35-15.67-8.93-17.06-40-72.55-76.26-93.75C43.1,11.5,0,0,0,0S64.32,38.93,87,146.06l7.72,124.79L69.78,288.22s28.73,80.59,62.14,115.94l3.72,30.52,30.91,45.74s-2.94-34.57,3.59-56.24c0,0,11.36,8.14,13.44,19.74,0,0-18.42,67.26,0,154.26,0,0,2.59-26.84,17.5-47.34l39.42,24.59V530.26l-39.28-21.57Z"/><path d="M294.83,377.08l-12-54.92a111.51,111.51,0,0,0-32.65-6.39V495.18H268Z"/><path d="M492.36,0s-43.1,11.5-91.24,39.65c-36.24,21.19-67.27,76.6-76.24,93.71a256.09,256.09,0,0,1,18.75,18.21l52.63-93.88.35-.63.44-.29,56.17-37.25-52.6,41L353.19,162.64c13.6,17,24.66,37.22,24.28,57.57l0,1.6-8.56,8.66c2.56,12,8.8,45.41,6.81,79.05,0,0-11.57,18.45-72.23,65.64L278.93,483l12.21,25.7-39.28,21.57v45.17l39.42-24.59c14.92,20.5,17.5,47.34,17.5,47.34,18.42-87,0-154.26,0-154.26,2.09-11.6,13.44-19.74,13.44-19.74,6.53,21.67,3.59,56.24,3.59,56.24l30.91-45.74,3.72-30.52c33.41-35.35,62.14-115.94,62.14-115.94l-24.93-17.37,7.72-124.79C428,38.93,492.36,0,492.36,0Z"/></g></g></svg>