<svg xmlns="http://www.w3.org/2000/svg" viewBox="0 0 507.17 444.41"><defs><style>.cls-1{fill:none;stroke:#000;stroke-miterlimit:10;stroke-width:8px;}</style></defs><title>GameWorld_icon</title><g id="Layer_2" data-name="Layer 2"><g id="Layer_10_copy" data-name="Layer 10 copy"><polygon points="272.71 290.56 282.44 270.98 262.51 250.58 242.35 257.9 255.61 280.46 272.71 290.56"/><polygon points="307.75 208.95 294.99 224.64 317 246.2 314.84 234.17 328.65 222.99 307.75 208.95"/><polygon points="260.54 204.02 235.59 192.66 222.39 228.74 235.2 251.75 258.09 243.43 262.31 240.03 260.54 204.02"/><polygon points="319.44 197.73 313.59 204.44 335.06 218.86 351.21 213.53 357.23 198.59 332.42 193.38 319.44 197.73"/><polygon points="311.46 151.31 295.59 171.21 308.02 200.18 315.41 191.69 329.02 187.14 330.82 173.5 314.88 159.7 311.46 151.31"/><polygon points="305.48 292.56 307.97 265.76 289.21 273.08 279.16 293.31 304.53 300.81 305.48 292.56"/><polygon points="269 171.2 258.37 189.42 270.92 195.14 272.66 230.32 287.77 218.14 302.29 200.3 289.3 170.03 269 171.2"/><polygon points="290.03 229.59 268.63 246.83 287.57 266.21 316.06 255.08 290.03 229.59"/><path d="M174.1,241.69l-14.57-3.06-.19-1.37-18.58-20.43a109.45,109.45,0,0,0-1.13,15.65,108.15,108.15,0,0,0,10.15,45.89l20.78-7.69Z"/><path d="M248.49,291.7l-27.11,10.94V334a107.87,107.87,0,0,0,17.41,7.08l12.06-17.31-11.58-7.29,24-16Z"/><path d="M337.77,174.34,336.1,187l30.34,6.37,8.52-3.52a108.56,108.56,0,0,0-16.21-26.56Z"/><path d="M309.6,317.9l-12.2,6,11.44,11.75a107.93,107.93,0,0,0,17.69-7.59l8.11-26.72L312,297.06Z"/><path d="M200,140.07l35.57-10.4,9.65-9.48L239.66,109a108.19,108.19,0,0,0-49.24,24Z"/><path d="M388.18,200l-6.36,15.8,13.6,18.67,12.21-.15c0-.63,0-1.25,0-1.88a108.38,108.38,0,0,0-6.16-36.11l-10.38,4.29Z"/><path d="M363.89,293.57l-1.61,27.54-10-1.92-6.07,20a109,109,0,0,0,37.61-43.49Z"/><path d="M274.18,110.21,262.4,121.79l12.76,18.28,21.1-1.22,19.45-24.39,3.12-12.39a108.36,108.36,0,0,0-37.28-6.57,109.57,109.57,0,0,0-14.2.92Z"/><path d="M327.12,133.21l4.61,11.3L346,156.88l18.95-10a108.82,108.82,0,0,0-35.06-24.76Z"/><path d="M385.35,272.5a108,108,0,0,0,7.25-31.13l-12.43.15L357.32,259l4.39,11Z"/><polygon points="364.41 215.7 348.13 221.08 334.36 232.25 335.64 239.39 355.26 248.94 376.7 232.57 364.41 215.7"/><path d="M290.24,346.62l-19.36,2.24-9.82-6.18L250.25,358.2a109.27,109.27,0,0,0,51-.31Z"/><path d="M205.32,317.24l-18.93-19.6L166.51,305a109.1,109.1,0,0,0,38.81,40.61Z"/><path d="M185.91,170.54,200,193.35,212.66,189,210,162.81l-10.79-7.94A109.14,109.14,0,0,0,185.91,170.54Z"/><path d="M172.2,215.44l-3.41-25.21,12.07-4.15-11.52-18.63a107.89,107.89,0,0,0-12.47,31.14Z"/><polygon points="210.32 230.35 222.48 197.11 208.87 195.96 180.86 205.59 184.67 233.8 215.89 240.36 210.32 230.35"/><polygon points="219.49 153.19 222.05 177.91 235.4 179.04 237.64 172.9 254.39 180.52 265.21 162 252.36 143.59 219.49 153.19"/><polygon points="292.91 320.66 305.45 314.44 306.08 308.99 277.12 300.42 258.8 312.61 274.9 322.74 292.91 320.66"/><polygon points="235.98 285.29 220.05 258.2 220.15 258.17 216.41 251.46 195.84 247.14 192.33 275.99 211.03 295.35 235.98 285.29"/><polygon points="352.93 273.79 347.56 260.35 331.81 252.68 332.86 258.58 321.79 262.91 319.27 290.07 351.62 296.26 352.93 273.79"/></g><g id="Layer_13" data-name="Layer 13"><polyline class="cls-1" points="372.32 145.46 402.32 124.55 392.6 154.87 478.66 112.91 391.04 185.24"/><polyline class="cls-1" points="404.32 247.9 478.66 289.52 404.32 283.29 427.06 311.58 388.32 307.58"/><polyline class="cls-1" points="127.61 222.2 34.99 212.24 127.61 200.88 92.89 180.52 147.91 180.52"/><polyline class="cls-1" points="159.66 162.06 102.99 102.91 174.1 138.21"/><polyline class="cls-1" points="232.32 98.96 224.01 20.91 256.9 84.91 263.64 53.91 275.73 81.15"/><polyline class="cls-1" points="330.82 98.96 372.32 59.94 346.16 109.03"/><polyline class="cls-1" points="205.32 354.91 193.69 426.81 235.98 363.19 242.35 388.24 252.82 370.24"/><polyline class="cls-1" points="313.2 361.06 351.57 418.02 336.61 347.96"/><polyline class="cls-1" points="147.91 291.7 123.66 326.1 156.87 308.9"/></g></g></svg>