<svg xmlns="http://www.w3.org/2000/svg" viewBox="0 0 91.3 101.39"><defs><style>.cls-1{fill:#fff;}.cls-2{fill:#ff6c96;opacity:0.7;}</style></defs><title>health</title><g id="Layer_2" data-name="Layer 2"><g id="Layer_19" data-name="Layer 19"><polygon class="cls-1" points="23.48 70.9 17.53 67.46 17.53 35.01 39.03 22.6 41.02 16.42 13.17 32.5 13.17 69.98 22.11 75.14 23.48 70.9"/><polygon class="cls-1" points="58.7 76.14 45.63 83.69 33.12 76.47 31.76 80.7 45.63 88.72 60.12 80.35 58.7 76.14"/><polygon class="cls-1" points="49.96 16.26 52.07 22.5 73.74 35.01 73.74 67.46 68.31 70.59 69.73 74.8 78.09 69.98 78.09 32.5 49.96 16.26"/><polygon class="cls-1" points="23.48 70.9 17.53 67.46 17.53 35.01 39.03 22.6 41.02 16.42 13.17 32.5 13.17 69.98 22.11 75.14 23.48 70.9"/><polyline class="cls-1" points="19.7 40.67 19.7 44.76 28.12 31.41 24.07 33.75"/><polygon class="cls-1" points="58.7 76.14 45.63 83.69 33.12 76.47 31.76 80.7 45.63 88.72 60.12 80.35 58.7 76.14"/><polygon class="cls-1" points="49.96 16.26 52.07 22.5 73.74 35.01 73.74 67.46 68.31 70.59 69.73 74.8 78.09 69.98 78.09 32.5 49.96 16.26"/><polygon class="cls-1" points="45.36 4.06 52.45 15.18 56.53 17.54 45.35 0 34.04 17.94 38.08 15.6 45.36 4.06"/><polygon class="cls-1" points="71.56 45.14 71.56 41.1 66.68 33.45 62.6 31.09 71.56 45.14"/><polygon class="cls-1" points="80.27 54.75 80.27 58.8 88.3 71.39 45.74 98.8 2.99 71.27 11 58.57 11 54.49 0 71.93 45.74 101.39 91.3 72.05 80.27 54.75"/><polygon class="cls-2" points="57.4 36.74 45.77 48.37 34.24 36.84 22.72 49.19 45.63 76.08 69.16 49.18 57.4 36.74"/><rect class="cls-1" x="39.97" y="27.21" width="10.64" height="10.64" transform="translate(-9.73 41.55) rotate(-45)"/></g></g></svg>