<svg xmlns="http://www.w3.org/2000/svg" viewBox="0 0 315.8 366.11"><title>avatar</title><g id="Layer_2" data-name="Layer 2"><g id="Layer_13" data-name="Layer 13"><path d="M242.17,88.16A887.74,887.74,0,0,0,165.39,4.39L160.69,0c-7.33,10.53-25.7,37.52-42,66.23L103.34,56.6C94.5,66.21,85.19,76.77,76,87.93,23,151.93-2.52,204.45.2,244c3,44.38,26.48,79.47,67.8,101.46a186.46,186.46,0,0,0,61.35,19.77l4.06.43,24.9-31.82,16.83,32.25,5.31-.94a238,238,0,0,0,64.63-23.23c43.66-23.54,68.06-57.42,70.57-98C318.07,204.61,293.36,152.19,242.17,88.16Zm-130,162.71a9.84,9.84,0,0,1-9.81,9.81H70.47a9.84,9.84,0,0,1-9.81-9.81V219a9.84,9.84,0,0,1,9.81-9.81h31.87a9.84,9.84,0,0,1,9.81,9.81ZM301,243.06c-2.2,35.62-23.25,64.48-62.54,85.77a230.39,230.39,0,0,1-55.31,20.75l-21.52-41.25V167.17L70.72,119,94.14,92.34l67.44,11.33V21.15a886.19,886.19,0,0,1,69.21,76.34C278.86,157.65,303.13,208,301,243.06Z"/><rect x="204.91" y="235.34" width="51.49" height="25.34" rx="12" ry="12"/></g></g></svg>