<svg xmlns="http://www.w3.org/2000/svg" viewBox="0 0 446.1 265"><defs><style>.cls-1{stroke:#000;stroke-miterlimit:10;stroke-width:5px;}</style></defs><title>Misc_icon</title><g id="Layer_2" data-name="Layer 2"><g id="Layer_24" data-name="Layer 24"><path d="M45.59,185.87l-.85-6.93s10.87-3.5,16.59-6q12.65-5.37,16.25-7.21h1.77c-.73,20.76-1.09,33.37-1.09,36.45v25.23q0,15.1.34,22.85.2,4.56,1.12,5.75a5,5,0,0,0,2.72,1.7q1.8.51,11.8.92v4.15q-17.21-.54-21.56-.54-3.26,0-23.05.54v-4.15q10.34-.61,11.94-1a5.06,5.06,0,0,0,2.38-1.12,4.27,4.27,0,0,0,1.12-2.11q.54-2.11,1-12.14t.41-15.2V200.33q0-16.39-.07-20.54a3.62,3.62,0,0,0-.48-2.31,1,1,0,0,0-.75-.27A12.28,12.28,0,0,0,62,178.29C54.3,181.74,45.59,185.87,45.59,185.87Z"/><path d="M148,261.93l1.81-.4a64.74,64.74,0,0,0,21.59-9.28A44.89,44.89,0,0,0,186.25,235a55.44,55.44,0,0,0,5.44-20,27.65,27.65,0,0,1-22.51,11.77q-10.88,0-17.89-7.34t-7-20.13q0-14.55,8.77-23.56t22.1-9A27.52,27.52,0,0,1,201,183.12q3.84,8,3.84,20.81,0,15.78-5.78,27.61a60,60,0,0,1-20.74,23.73,57.88,57.88,0,0,1-24,9.72Zm8.07-67a34.76,34.76,0,0,0,2,11.53,17.57,17.57,0,0,0,6.36,8.84,17,17,0,0,0,10.13,3.09A16.67,16.67,0,0,0,187.44,213q4.93-5.37,4.93-16.19t-4.66-18a15.09,15.09,0,0,0-13.57-7.34,16.49,16.49,0,0,0-12.92,5.88Q156.06,183.19,156.06,194.89Z"/><path d="M306.87,169.8l-1.81.4a64.74,64.74,0,0,0-21.59,9.28,44.89,44.89,0,0,0-14.86,17.24,55.44,55.44,0,0,0-5.44,20A27.65,27.65,0,0,1,285.68,205q10.88,0,17.89,7.34t7,20.13q0,14.55-8.77,23.56t-22.1,9a27.52,27.52,0,0,1-25.81-16.39q-3.84-8-3.84-20.81,0-15.78,5.78-27.61a60,60,0,0,1,20.74-23.73,57.88,57.88,0,0,1,24-9.72Zm-8.07,67a34.76,34.76,0,0,0-2-11.53,17.57,17.57,0,0,0-6.36-8.84,17,17,0,0,0-10.13-3.09,16.67,16.67,0,0,0-12.89,5.37q-4.93,5.37-4.93,16.19t4.66,18a15.09,15.09,0,0,0,13.57,7.34,16.49,16.49,0,0,0,12.92-5.88Q298.81,248.54,298.81,236.85Z"/><path d="M356.47,262.82c1.59-2.36,7-10.79,14.41-22.44q3.6-5.78,18-29.11,5.85-9.52,15.78-26.93c.59-1,2.88-5.27,2.88-5.27l-22.19.1q-6.32,0-13.12.24t-8.3.85a2.84,2.84,0,0,0-1.29.88L362,182l-2,14.82h-4l.34-17.88c0-2.95-.34-11.83-.34-11.83,3.63.32,10,.61,16.25.88q12.24.48,16,.48,8.5,0,30.26-1v4.08l-9.79,17.34q-3.13,5.65-15.1,27.75-8.36,15.5-14.62,28.83-4.76,10.06-7.48,17.34C365.72,262.72,356.47,262.82,356.47,262.82Z"/><path d="M117.45,97.07a60.58,60.58,0,0,1,3.6,9.8l187-1.62a37.64,37.64,0,0,1,1.61-8.38Z"/><path d="M445.56,67.65h-1.62l0-.59,2-.62s-.91-10.31-1.5-12.09a49.27,49.27,0,0,1-1.47-8,5.47,5.47,0,0,0-2.5-4.06c-.56-.16-1.81-.62-1.81-.62H438l-.28-.2-23.75-1.62s-22.42-6.08-27.75-8.33-17.75-4.94-17.75-4.94v.31l-.87,0v.41s-17.92-5.08-34.25-9.33-27.42-8-27.42-8-10.92-3.42-32.25-7-48.9-3-57.08-2.67-20.81,4.12-20.81,4.12l-2.31,2.06.38.63L159.24,36.18h-1.5l-1.94.63H155l-2.31,1.25-13.31-.31c-34.69-3.5-79.06-1.87-79.06-1.87l-4.62,2.25-1,1.5c-41.12,3.5-50,10.25-50.75,10.63S0,54.37,0,54.37l.06,1.5a16.51,16.51,0,0,0,0,2.63c.13,1.13,8.75,14.38,8.75,14.38-7.37,2.63-8.75,5-8.75,5l6.13,3.38h1.5l1.75,1.88h1.25s4.13,6.88,4.88,8,8.62,6.13,8.62,6.13l18.5,1a33.84,33.84,0,0,1,7.78-19.49,34.52,34.52,0,1,0,64.89,16.43c0-.85,0-1.69-.1-2.52l.38.71-.53-2.32,196.65-.21v.06c.14-.34.28-.68.42-1a34.52,34.52,0,1,0,68.64,5.31,34.36,34.36,0,0,0-4-16.18,46.16,46.16,0,0,1,7.88,19.07s14.1-.55,15-.77a16.81,16.81,0,0,0,3.22-1.87l7.88-.53s12.78-.06,13.53-.19,2.78-3.19,2.78-3.19l7.69-.78c1-1,.66-3.06.66-3.06h.31V86l-.53-.34,0-1-.75-.34,3-4.62a46.82,46.82,0,0,0,7.34-4.5C447.18,73.12,445.56,67.65,445.56,67.65Z"/><line class="cls-1" x1="36.31" y1="137.99" x2="419.31" y2="137.99"/></g></g></svg>