<svg xmlns="http://www.w3.org/2000/svg" viewBox="0 0 934.92 317.02"><defs><style>.cls-1{fill:none;stroke:#000;stroke-miterlimit:10;stroke-width:5px;}.cls-2{font-size:48.72px;font-family:TitilliumWeb-Regular, TitilliumWeb Regular;}</style></defs><title>SwordfishSS_icon</title><g id="Layer_2" data-name="Layer 2"><g id="Layer_1_copy" data-name="Layer 1 copy"><path id="_Path_" data-name="&lt;Path&gt;" d="M663,107.66,660.77,105s11.61-21.43,20.09-28.12L727.29,63S718.81,81.77,717,88s-3.12,10.71-4,15.18l-10.27,1.34s55.8,41.07,62.94,43.75a18.62,18.62,0,0,0,12.05,3.57,5.81,5.81,0,0,0,3.57-5.36l-5.8-.45,10.71-14.73,8.48.45a33.29,33.29,0,0,1,6.7-4.91s9.82-1.79,11.16-1.79c0,0-1.79-3.12,12.5-1.34V126l14.73-.89,9.82-3.12s0-5.36,6.7-7.59,8,1.34,8,1.34,5.8-4.91,22.32-5.8l23.66-14.73v21s13.39,1.79,16.07,17-4,24.11-4,24.11l.45,3.12S930.4,163,934,168.82s-3.57,13.39-11.16,16.07l-6.25-4.46s-20.09,8.48-27.68,10l-8.48,15.4-37.05-15.4L859,186.67s-12.95-1.34-17.41-3.57c0,0-6.7,5.36-9.82,7.37s-12.5.22-12.5.22l54.46,46.87,40.18-30.8A117.88,117.88,0,0,1,905,257.65l-4.46,3.12,1.79,2.23-4.91,9.82L892.46,276l2.23,3.12s-5.8,14.28-18.3,24.55c0,0-21.87,8-31.69,9.82l3.57-9.82L821.48,317s-.89-4,4.91-13.39,29.46-30.8,29.46-30.8,4-2.68-4.91-9.82-50.89-48.21-50.89-48.21a23.11,23.11,0,0,1-7.59,18.75c-8.93,8-23.66,13.84-40.18-2.23a24.06,24.06,0,0,1-7.14,4s.45,3.57-4.91,7.59-12.5,3.57-24.55-10.27L552.3,266.58s-3.12-.45-4-1.79,2.68-7.59,2.68-7.59l161.6-41.07s-.45-2.68,4.91-4.46,5.8.45,5.8.45,12.05-9.82,14.73-10.71,7.59,2.68,7.59,2.68l3.57-5.8-102.23-1.34,1.34-3.12,84.82-27.68s4.46-4.91,1.79-7.14-31.69-21.43-31.69-21.43l-.45,19.64-39.28-5.36s-6.7-18.3-3.57-31.25c0,0-27.23.45-31.25-3.57S663,107.66,663,107.66Z"/><rect id="_Rectangle_" data-name="&lt;Rectangle&gt;" class="cls-1" x="2.5" y="2.5" width="679.24" height="132.1"/><g id="_Group_" data-name="&lt;Group&gt;"><path id="_Compound_Path_" data-name="&lt;Compound Path&gt;" class="cls-1" d="M6.21,77H47.43L29,54.06a10.21,10.21,0,0,1-2.28-5.6,10.5,10.5,0,0,1,1-5.55,11.21,11.21,0,0,1,3.73-4.29,9.93,9.93,0,0,1,5.83-1.73H78.39V48H38.29L56.66,70.94a10.24,10.24,0,0,1,2.28,5.6,10.68,10.68,0,0,1-4.66,9.84,9.92,9.92,0,0,1-5.83,1.73H6.21Z"/><path id="_Compound_Path_2" data-name="&lt;Compound Path&gt;" class="cls-1" d="M94.62,37l22.66,40.38a3.79,3.79,0,0,0,6.53,0L133.51,60l-13-23h12.68l6.62,11.75L146.47,37h12.68l-13,23L156,77.38a3.76,3.76,0,0,0,1.4,1.4,3.58,3.58,0,0,0,1.77.47,3.85,3.85,0,0,0,1.82-.47,3.66,3.66,0,0,0,1.45-1.4L185.08,37h12.68L172,82.79a14.1,14.1,0,0,1-5.6,5.69,15,15,0,0,1-7.23,1.87,15.27,15.27,0,0,1-7.27-1.87,14,14,0,0,1-5.64-5.69l-6.43-11.47-6.43,11.47a14,14,0,0,1-5.64,5.69,15.12,15.12,0,0,1-14.55,0,13.42,13.42,0,0,1-5.55-5.69L81.93,37Z"/><path id="_Compound_Path_3" data-name="&lt;Compound Path&gt;" class="cls-1" d="M222.19,88.1a24.64,24.64,0,0,1-9.93-2,26,26,0,0,1-13.62-13.62,24.64,24.64,0,0,1-2-9.93,25,25,0,0,1,2-10,25.33,25.33,0,0,1,5.5-8.11A26.46,26.46,0,0,1,212.26,39a24.67,24.67,0,0,1,9.93-2h38.14a25,25,0,0,1,10,2,26.32,26.32,0,0,1,8.16,5.46,25.35,25.35,0,0,1,5.5,8.11,25,25,0,0,1,2,10,24.66,24.66,0,0,1-2,9.93A25.9,25.9,0,0,1,270.31,86.1a25,25,0,0,1-10,2Zm38.14-11.19a14.06,14.06,0,0,0,5.6-1.12,14.38,14.38,0,0,0,7.65-7.65,14.55,14.55,0,0,0,0-11.19,14.38,14.38,0,0,0-7.65-7.65,14.06,14.06,0,0,0-5.6-1.12H222.19a14,14,0,0,0-5.6,1.12A14.38,14.38,0,0,0,209,57a14.55,14.55,0,0,0,0,11.19,14.38,14.38,0,0,0,7.65,7.65,14,14,0,0,0,5.6,1.12Z"/><path id="_Compound_Path_4" data-name="&lt;Compound Path&gt;" class="cls-1" d="M311.72,62.55h33.76a7.18,7.18,0,1,0,0-14.36H299.22V88.1H288V37l57.45-.09a18.15,18.15,0,0,1,13,5.41,19.1,19.1,0,0,1,3.92,5.88,18.56,18.56,0,0,1,0,14.36,18.24,18.24,0,0,1-9.75,9.75,17.94,17.94,0,0,1-7.18,1.45h-6.53L363.29,88.1H341.56L309.85,69.36a3.11,3.11,0,0,1-1.58-1.82,4.09,4.09,0,0,1-.09-2.28,3.62,3.62,0,0,1,1.21-1.91A3.48,3.48,0,0,1,311.72,62.55Z"/><path id="_Compound_Path_5" data-name="&lt;Compound Path&gt;" class="cls-1" d="M442.09,69.73a18,18,0,0,1-1.45,7.18,18.24,18.24,0,0,1-9.75,9.75,18,18,0,0,1-7.18,1.45H366.27V37l57.45-.09a18.15,18.15,0,0,1,13,5.41,19.1,19.1,0,0,1,3.92,5.88,18,18,0,0,1,1.45,7.18Zm-18.37,7.18a7.16,7.16,0,0,0,7.18-7.18V55.37a7.16,7.16,0,0,0-7.18-7.18H377.46V76.91Z"/><path id="_Compound_Path_6" data-name="&lt;Compound Path&gt;" class="cls-1" d="M457.57,88.1H446.38V55.37a18,18,0,0,1,1.45-7.18,18.24,18.24,0,0,1,9.75-9.75A18,18,0,0,1,464.75,37h43V48.19h-43a7.16,7.16,0,0,0-7.18,7.18v7.18h50.17V73.74H457.57Z"/><path id="_Compound_Path_7" data-name="&lt;Compound Path&gt;" class="cls-1" d="M522.85,88.1H511.66V37h11.19Z"/><path id="_Compound_Path_8" data-name="&lt;Compound Path&gt;" class="cls-1" d="M522.85,76.91l47,.09L551.38,54.06a10.21,10.21,0,0,1-2.29-5.6,10.5,10.5,0,0,1,1-5.55,11.22,11.22,0,0,1,3.73-4.29,9.93,9.93,0,0,1,5.83-1.73h41.13V48h-40.1l18.37,22.94a10.25,10.25,0,0,1,2.28,5.6,10.68,10.68,0,0,1-4.66,9.84,9.92,9.92,0,0,1-5.83,1.73l-48-.09Z"/><path id="_Compound_Path_9" data-name="&lt;Compound Path&gt;" class="cls-1" d="M615.54,57.23h52.22V37h11.28V88.1H667.77V68.42H615.54V88.1H604.35V37h11.19Z"/></g><g id="_Group_2" data-name="&lt;Group&gt;"><text class="cls-2" transform="translate(195.04 184.46)"><tspan xml:space="preserve">S p a c e   S y s t e m s</tspan></text></g><line id="_Path_2" data-name="&lt;Path&gt;" class="cls-1" x1="670.71" y1="116.05" x2="2.5" y2="116.05"/></g></g></svg>