<svg xmlns="http://www.w3.org/2000/svg" viewBox="0 0 575.43 461.42"><title>winter_thumb</title><g id="Layer_2" data-name="Layer 2"><g id="Layer_13" data-name="Layer 13"><path d="M521.47,162.6l54,53L453.29,330.86c0-1.17,0-2,0-2.75,0-5.23.35-10.48-.09-15.67-.63-7.55-2.06-15-6.61-21.37a18,18,0,0,0-12.46-7.42,2.73,2.73,0,0,0-3.42,2c-6.55,16.5-13.2,32.95-19.83,49.41q-9.56,23.75-19.17,47.49a7,7,0,0,1-2.27,2.56c-6.4,5-12.86,9.95-19.63,15.17l3.41-25.45-.68-.18c-.57,2-1.21,4-1.7,6.06-1.81,7.41-3.32,14.91-5.47,22.21-.86,2.92-3,5.49-4.74,8.13-3.54,5.49-7.18,10.92-10.78,16.38-2.14-4.09-1.37-8.09-.4-12.18,2.63-11,5.17-22.1,7.69-33.17q4-17.69,7.94-35.4c2.47-11.08,4.86-22.18,7.35-33.25,2.86-12.69,5.83-25.35,8.68-38,2.81-12.53,5.53-25.08,8.3-37.62.32-1.46.58-2.93,1-4.36a12.51,12.51,0,0,1,3.51-6.36c6.83-6.19,13.4-12.68,20.15-19a6.39,6.39,0,0,1,3.24-1.57c6.23-.9,12.5-1.59,18.74-2.42s12.64-1.83,19-2.66,12.68-1.55,19-2.33c3.13-.39,6.28-.71,9.37-1.32a3,3,0,0,0,1.82-2c1.67-8.89,3.23-17.79,4.77-26.7.95-5.46,1.86-10.94,2.66-16.42a4.28,4.28,0,0,0-.76-2.78c-9.15-13.07-20.34-23.66-35.68-29.2a2.69,2.69,0,0,0-3.29.73c-9.11,9.47-18.31,18.85-27.33,28.41a15.32,15.32,0,0,1-7.37,4.26c-8.13,2.31-16.31,4.48-24.29,7.21-2.59.89-4.67,3.3-6.94,5.07Q360.26,187.16,333.54,208c-.7.55-1.33,1.19-2.48,2.23,3.17,1,5.84,1.94,8.53,2.76,10.86,3.28,21.71,6.58,32.6,9.72a4.78,4.78,0,0,0,3.58-.82c5.56-4.05,11-8.28,16.86-12.2-1.14,2.8-2.26,5.6-3.43,8.38s-2.44,5.44-3.53,8.22-4,3-6.23,4.05-3.4,2-3.83,4.73c-1.27,7.93-3.13,15.75-4.65,23.64-1.47,7.65-2.75,15.33-4.22,23-1.53,8-3.27,15.91-4.78,23.88s-2.74,15.82-4.21,23.71c-1.06,5.7-2.35,11.35-3.45,17-1.55,8.06-3,16.15-4.54,24.21-1,5.37-2.13,10.72-3.18,16.08-1.69,8.62-3.36,17.24-5.1,26.21-2.66-1.29-5.3-2.55-7.93-3.85a54.59,54.59,0,0,1-6.18-3.22c-1.95-1.3-2.71-.5-3.56,1.2-3.31,6.6-6.71,13.16-10.07,19.74S307,439.91,303.16,446.4c.2-2.09.43-4.18.6-6.28.85-10.25,1.62-20.51,2.56-30.75.86-9.34,2-18.65,2.82-28,.84-9.52,1.39-19.07,2.16-28.6.45-5.53,1.09-11,1.63-16.57.47-4.79.91-9.58,1.35-14.37.62-6.61,1.26-13.21,1.83-19.82s1-13.42,1.6-20.13c.45-5.21,1.07-10.41,1.45-15.63a9.34,9.34,0,0,0-.84-3.58c-1.16-3.24-2.41-6.45-3.62-9.67l-1.1.07-1.12,14.58h-.23c-.7-4.22-1.34-8.45-2.09-12.66a190.67,190.67,0,0,1-2.95-33.21,119.38,119.38,0,0,1,3.16-28.39c2-8.24,6-15.65,10.11-23a126,126,0,0,1,20.35-27c10.57-10.65,22.38-19.49,36.45-25.08A5.07,5.07,0,0,0,380,115.5c1.9-7.19,3.53-14.45,5.28-21.67,1.9-7.8,3.86-15.58,5.76-23.38,1.76-7.23,3.48-14.48,5.21-21.71q2.78-11.58,5.56-23.17c.6-2.48,1.22-5,1.92-7.83,3,.88,5.87,1.57,8.64,2.55,10,3.55,20.08,6.88,29.89,10.89a181.88,181.88,0,0,1,52,31.91C505.37,72.9,514.5,84.38,523.59,96c10.25,13.07,20.81,25.89,31.24,38.82.52.64,1,1.31,1.62,2.11Z"/><path d="M236.06,212.78l7.47-2.53c-2.41-2-4.37-3.75-6.44-5.36q-24.68-19.19-49.42-38.32c-3-2.31-6-4.84-9.47-6.21a78.05,78.05,0,0,0-16.68-4.84c-7.84-1.22-12.94-5.95-18-11.39-7-7.57-14.28-14.86-21.4-22.31a3.45,3.45,0,0,0-4.29-1c-13.21,4.63-23.09,13.52-31.66,24.16a19.43,19.43,0,0,0-3,4c-.76,1.73-1.54,3.81-1.27,5.58,1.27,8.44,2.93,16.82,4.39,25.23.89,5.15,1.73,10.31,2.45,15.48.3,2.17,1.75,2.64,3.47,2.87,10.11,1.34,20.22,2.69,30.34,4,11,1.4,22.05,2.72,33.08,4.11a8.91,8.91,0,0,1,5.46,2.58c6.75,6.63,13.78,13,20.54,19.62a11.57,11.57,0,0,1,3,5.27c2.46,10.14,4.72,20.33,7,30.52,2.13,9.63,4.12,19.28,6.28,28.9,1.83,8.17,3.83,16.29,5.68,24.45,1.81,8,3.51,16,5.3,24,1.74,7.76,3.57,15.5,5.31,23.26,1.94,8.65,3.76,17.33,5.72,26,1.79,7.91,3.6,15.82,5.57,23.69,1.67,6.67,1.78,6.64-.17,13-4.75-7.13-9.25-14.3-14.22-21.13-2-2.74-4.94-4.83-7.62-7-5.22-4.24-10.43-8.51-15.88-12.44-3.25-2.34-4.79-5.57-6.19-9q-5.38-13.24-10.73-26.5-7.67-19-15.29-38.09c-3.73-9.31-7.49-18.6-11.16-27.93-.76-1.94-2.21-1.78-3.7-1.54-7.09,1.16-11.91,5.31-14.63,11.78a50.14,50.14,0,0,0-4.08,20.33c.07,4.85,0,9.7,0,15L0,215.93l53.71-53.19L18.65,137.17c5.5-6.72,10.83-13.08,16-19.57,6.66-8.38,12.93-17.08,19.85-25.25,6.65-7.86,13.59-15.54,21-22.7,14.77-14.33,31.77-25.6,50.17-34.77a256.83,256.83,0,0,1,41.8-15.94c1.31-.39,2.64-.74,4-1.13,2.2,9.2,4.27,18.06,6.43,26.89,2.2,9,4.53,18,6.71,27,1.84,7.64,3.49,15.32,5.31,23,1.38,5.79,2.83,11.56,4.39,17.3A12.51,12.51,0,0,1,193.08,122c-6.31,11.57-12.05,23.45-18,35.22a3.12,3.12,0,0,0-.15.9l.67.61c.36-.56.68-1.16,1.08-1.69,7.75-10.18,15.38-20.46,23.33-30.49,5.29-6.67,3.23-6.11,10.44-1.85A115.93,115.93,0,0,1,252,166.47c4.1,7,8.11,14.18,10.92,21.74,2.39,6.44,3.52,13.48,4.28,20.36a126,126,0,0,1-.29,31.11c-1.33,9.68-2.62,19.36-3.93,29l-.76.05-7.93-17.26q-8.47-18.42-17-36.84a14.18,14.18,0,0,0-1.36-2Z"/><path d="M287.48,461.42c-1.67-4.56-3.49-8.68-4.65-13-.82-3.08-.77-6.39-1.06-9.6-1.15-12.57-2.34-25.13-3.42-37.7-.77-9-1.32-18.05-2.1-27.07-.5-5.78-1.26-11.53-1.85-17.3-.41-4-.77-8.09-1.09-12.14-.54-6.61-1-13.23-1.55-19.85-.64-7.62-1.34-15.23-2-22.85-.5-5.7-1.09-11.4-1.4-17.11a14.57,14.57,0,0,1,1-5.53,145.61,145.61,0,0,0,8.31-34.74A250.15,250.15,0,0,0,279,215.67c-.12-7.51-1.52-15-2.59-22.5-.87-6-2.8-12-3-18.07-.19-6.83,1.08-13.7,1.66-20.56.43-5.12.75-10.26,1.15-15.39.58-7.53,1.2-15.06,1.79-22.59.42-5.31.81-10.61,1.22-15.92.64-8.19,1.31-16.38,1.93-24.58.39-5.13.67-10.27,1.08-15.39.59-7.44,1.3-14.87,1.88-22.31.44-5.63.73-11.27,1.13-16.91q.71-9.95,1.52-19.89A6.56,6.56,0,0,1,287.36,0L288,0c.27,2.4.58,4.79.79,7.2q1,11.54,1.89,23.08c.4,5,.72,10.11,1.12,15.16.62,7.85,1.28,15.7,1.9,23.55.39,5,.73,9.93,1.1,14.89q.94,12.43,1.89,24.86c.32,4.14.65,8.28,1,12.42.39,5.13.74,10.27,1.15,15.4.62,7.69,1.32,15.38,1.89,23.07.45,6.13,1,12.26,1,18.39,0,3.23-1.37,6.45-2,9.69-3.35,16.37-5.13,32.85-2.86,49.52,1.19,8.69,2.4,17.41,4.15,26,1.1,5.41,3.43,10.56,4.81,15.93a30.1,30.1,0,0,1,.87,9.05c-.4,7-1.18,14.06-1.83,21.08-.53,5.71-1.12,11.42-1.62,17.13s-.9,11.24-1.39,16.86c-.51,5.86-1.06,11.73-1.61,17.59q-.68,7.31-1.37,14.63c-.6,6.36-1.21,12.72-1.8,19.09-.37,4.06-.75,8.11-1.06,12.17-.42,5.63-.7,11.28-1.18,16.91s-1.56,11.37-1.6,17.07C293.12,448.05,290.21,454.42,287.48,461.42Z"/><path d="M236,212.7c.76,2.5,1.37,5.05,2.31,7.48,4.4,11.37,8.5,22.87,13.48,34,4,8.82,4.9,18,5.57,27.35.73,10.19,1.63,20.37,2.51,30.54q1.45,16.73,3,33.45c.92,9.83,2,19.65,2.87,29.49.8,9.1,1.35,18.22,2.14,27.31.49,5.7,1.24,11.37,1.82,17.06.39,3.88.72,7.76,1,11.64.41,5.21.77,10.42.75,15.82-2.79-4.87-5.55-9.75-8.36-14.61-4.49-7.76-9.23-15.38-13.39-23.3-1.76-3.36-2.54-7.31-3.34-11.08-1.43-6.81-2.54-13.68-3.77-20.53-.33-1.82-.63-3.64-.95-5.45l-.77.07a21.74,21.74,0,0,0,0,2.31q1.66,15.48,3.36,31c.15,1.4,0,2.45-1.59,3.18-3,1.34-5.88,3-9,4.7-.82-4.22-1.61-8.16-2.36-12.12-.8-4.22-1.56-8.46-2.36-12.68q-1.82-9.63-3.67-19.24c-1.14-5.86-2.35-11.71-3.46-17.58-1.89-10-3.68-20-5.59-30-1.46-7.65-3.11-15.26-4.58-22.9-1.84-9.52-3.55-19.06-5.37-28.58-1.09-5.7-2.29-11.37-3.4-17.06-1.22-6.26-2.49-12.52-3.51-18.81a3.93,3.93,0,0,0-2.59-3.28,12.64,12.64,0,0,0-1.66-.51c-3.71-1.07-5.8-3.43-7-7.19-1.44-4.39-3.68-8.52-5.89-13.47,2.26,1.7,4,3,5.69,4.28,3.5,2.65,7.1,5.18,10.45,8,2.68,2.27,5.13.53,7.5-.16,9.31-2.68,18.55-5.62,27.83-8.44.78-.24,1.61-.34,2.42-.51Z"/></g></g></svg>